<svg version="1.2" xmlns="http://www.w3.org/2000/svg" viewBox="0 0 1008 864" width="1008" height="864">
&#x9;
&#x9;<path fill-rule="evenodd" class="s0" d="m491.36 613.7q2.29 0.3 4.49 0.4 3.7 0.3 7.49 0.3 2.3 0.1 4.6 0 3.49 0 7.09-0.3c1.5 0 3-0.2 4.5-0.3q3.79-0.4 7.49-1c1.5-0.2 2.9-0.5 4.49-0.8v0.1q3.3-0.7 6.7-1.5 2.19-0.5 4.39-1.1 3.7-1 7.39-2.2 2.2-0.79 4.3-1.59c2.2-0.8 4.3-1.6 6.49-2.6q2.1-0.9 4.2-1.9h0.1q3-1.4 5.99-3 2-1 4-2.19 3.1-1.7 6.09-3.6h0.1q1.9-1.2 3.7-2.5 3.49-2.3 6.79-4.79 1.8-1.4 3.6-2.8 3.09-2.5 5.99-5.09 1.7-1.5 3.4-3v-0.1q2.99-2.8 5.79-5.7 1.6-1.69 3.2-3.39 2.3-2.6 4.59-5.3 1.4-1.79 2.9-3.59 2.5-3.1 4.8-6.4 1.39-1.89 2.69-3.89h0.1q0.6-0.9 1.2-1.8l3.7-6.39 9.19-15.99 4.89-8.49 2.2-3.99 5.39-9.19 2.2-4 4.8-8.49 2.29-4 5-8.59 2.3-3.99 5.09-8.89 2.3-4 4.69-8.09 2.2-3.9 5-8.69 2.29-3.99 7-12.19 4.99-8.59 2.2-4 4.8-8.39 2.29-4.1 5.1-8.89 2.29-3.99 4.7-8.09 2.3-4 4.79-8.49 2.3-4 4.9-8.39 2.19-3.89 11.09-19.38 0.7-1.4q2.3-4.2 4.3-8.49c0.6-1.3 1.19-2.7 1.79-4.1 2.9-6.59 5.4-13.58 7.3-20.68q0.6-2 1.1-3.99c2.09-8.89 3.49-18.08 3.89-27.17h0.1c0-0.7 0-1.4 0.1-2.2q0-1.2 0-2.4c0.2-8.89-0.3-17.78-1.4-26.67q-0.3-2.3-0.6-4.6c-0.8-6.59-1.89-12.98-3.19-19.18v-0.1q-0.4-2.29-0.9-4.59-1.1-5.6-2.3-10.99l4.4-2 8.69-3.79 32.16-14.29q2.2 7.39 4 14.68 0.7 2.6 1.3 5.2 3.29 14.28 5.09 28.97 0.3 2.8 0.6 5.49c1.2 11.19 1.6 22.48 1.3 33.77 0 2.1-0.1 4.19-0.2 6.19-0.7 12.79-2.5 25.77-5.39 38.36q-0.6 2.7-1.2 5.2c-2.5 9.69-5.8 19.28-9.79 28.57h-0.1q-1 2.39-1.9 4.39-2.1 4.5-4.7 8.59l-14.88 25.38-2.5 4.09-4.69 8.19-2.5 4.1-1.8 3.1-2.9 5.19-2.39 4.2-4.5 8.09-2.3 4.19-4.99 8.79-2.4 4.2-4.49 8.19-2.3 4.2-4.8 8.39-2.39 4.19-4.5 8.2-2.4 4.19-4.79 8.49-2.3 4.2-4.49 7.99-2.4 4.2-4.9 8.59-2.29 4.19-4.5 7.99-2.3 4.2-4.59 8.29-2.4 4.2-4.79 8.49-2.3 4.09-4.8 8.49-2.39 4.2-4.7 8.49-2.4 4.2h0.1l-3.89 6.89-1 1.4q-1.4 2-2.7 3.89h-0.1q-3.6 5.1-7.29 9.89-1.5 1.9-3 3.7-3.79 4.59-7.69 8.89-1.6 1.8-3.2 3.5-4.09 4.39-8.29 8.39-1.7 1.7-3.5 3.29-4.39 4-8.89 7.8h0.1q-1.89 1.49-3.79 2.99-4.7 3.8-9.69 7.1-2 1.39-4 2.79-4.69 3.2-9.59 6.1-2.1 1.2-4.19 2.39-5.1 2.8-10.29 5.3v0.1q-2.1 1-4.3 2-5.29 2.39-10.59 4.49l-0.1-0.1q-2.09 0.9-4.39 1.7-5.3 1.9-10.59 3.5-2.3 0.7-4.6 1.3-5.59 1.39-11.09 2.49-2.39 0.5-4.69 0.9-5.79 1-11.59 1.6-2.3 0.2-4.69 0.4-5.5 0.5-10.99 0.6v0.1h-4.8v-0.1q-5.49 0-11.09-0.4-2.29-0.1-4.69-0.3-5.79-0.6-11.39-1.5-2.4-0.4-4.69-0.8-5.7-1.1-11.39-2.5-2.3-0.59-4.6-1.19-5.29-1.5-10.49-3.3-2.29-0.7-4.49-1.6-5.6-2-10.99-4.39-2.2-1-4.4-2v-0.1q-5.19-2.4-10.18-5.2-2.1-1.1-4.2-2.39-5.29-3-10.39-6.4v-0.1q-2-1.3-3.9-2.69l0.1-0.1-0.2 0.1q-4.49-3-8.79-6.4-1.79-1.5-3.69-2.99v-0.1c-3.1-2.5-6.2-5.2-9.19-8q-1.8-1.59-3.5-3.29-4.49-4.3-8.69-8.89v-0.1q-1.6-1.7-3.2-3.5-3.89-4.4-7.69-9.09v-0.1q-1.5-1.8-3-3.7-3.59-4.79-6.99-9.79-1.3-1.89-2.5-3.89l-4.59-8.69-2.2-4.3-4.49-8.59-2.3-4.3-0.3-0.69-4.3-7.6-2.39-3.99-4.8-8.49-2.3-4.2-4.89-8.39-2.3-4.2-4.79-8.49-9.49-16.68-4.5-7.99-2.4-4.2-4.89-8.79-2.4-4.09-4.49-7.9-2.4-4.19-4.7-8.19-2.3-4.2-4.89-8.59-2.4-4.2-7.19-12.78-4.89-8.49-2.3-4.1-4-7.09-0.7-1c-0.5-0.9-1.4-2.3-2.5-4.1-1.29-2.19-2.99-4.89-4.79-7.89q-1.2-2-2.5-4.19c-7.09-11.89-15.78-26.68-18.68-33.67q-0.9-2.2-1.8-4.49-5.89-15.09-9.89-28.37c-0.4-1.5-0.89-3-1.29-4.5v-0.1c-3.6-12.79-6-25.97-7.2-39.16q-0.2-2.5-0.3-4.99c-0.6-11.69-0.2-23.38 1.2-34.97q0.3-2.39 0.7-4.79c1.4-9.79 3.4-19.68 5.8-29.97q0.59-2.3 1.09-4.7 1.8-7.39 3.9-14.98l33.76 14.78 9.1 4 4.09 1.8q-1.5 5.19-2.8 10.69-0.5 2.2-0.99 4.39c-1.4 6.1-2.5 12.49-3.4 18.98q-0.4 2.3-0.7 4.7-1.6 13.38-1.3 26.97 0.1 1.1 0 2.3 0.1 1.2 0.2 2.5c0.5 8.99 1.8 17.98 4 26.87h-0.1q0.6 2.09 1.1 4.29h0.1q2.89 10.59 7.29 20.68 1 2.1 2 4.3 1.79 3.99 3.99 7.99l0.7 1.4 11.19 19.98 0.1-0.1 2.3 4.09 4.69 8.09 2.2 4 4.79 8.39 2.2 4 4.9 8.69 2.29 3.99 4.8 8.69 2.3 4 4.89 8.79 2.3 4 4.79 8.49 2.3 3.99 4.6 8.1 2.2 3.99 5.09 8.89 2.3 3.9 4.59 8.19 2.3 3.99 4.8 8.7 2.19 3.99 4.9 8.59 2.3 4.1 4.89 8.49 2.2 4 4.89 8.59 2.3 4.09 4.7 8.39 0.99 1.7 1.4 2.2 5.3 8.39 2.5 3.9v-0.1l4.69 7.49 0.3 0.4q1.3 1.8 2.6 3.49v0.1q2.19 3.1 4.59 6.1h-0.1q1.5 1.8 2.9 3.49h0.1c1.6 2 3.3 3.9 5.09 5.8q1.5 1.7 3.1 3.3v0.1q3 2.99 5.99 5.79 1.6 1.4 3.2 2.8c2.1 1.89 4.2 3.69 6.39 5.39v0.1q1.9 1.4 3.8 2.8c1.9 1.5 3.9 2.89 5.89 4.19q1.9 1.3 3.7 2.5 3.2 2 6.39 3.7v0.1q2 1.1 3.9 2.09h0.1q3.4 1.8 6.79 3.4 2.1 1 4.2 1.9 3.39 1.4 6.79 2.7 2.2 0.7 4.3 1.39c2.49 0.9 4.99 1.6 7.39 2.3q2.2 0.6 4.49 1.1c2.3 0.6 4.7 1.1 6.9 1.5q2.29 0.4 4.59 0.7v0.1c2.2 0.3 4.4 0.6 6.6 0.8zm-107.59 12.19z"></path>
&#x9;<path fill-rule="evenodd" class="s1" d="m235.52 579.43h-0.1q-1.3-2.29-2.6-4.59c-4.29-7.79-8.79-16.18-13.48-24.78l-2.5-4.69c-4.4-7.99-8.79-16.38-13.19-24.58q-1.2-2.29-2.49-4.59c-4.5-8.59-8.99-17.08-13.19-25.07l-0.1 0.1-2.4-4.7v-0.1c-5.19-9.89-9.89-18.98-13.78-26.27l-2.5-4.7v-0.1c-5-9.49-8.09-15.38-8.09-15.38l-0.9-1.5q-2.5-4.2-5.4-8.69-1.29-2.2-2.59-4.5c-5.3-8.59-10.69-17.68-15.39-26.17q-1.3-2.4-2.59-4.59-5.4-9.79-9.89-20.08c-3.1-7.49-6.5-15.99-9.89-25.28q-0.8-2.49-1.7-4.99c-5.5-16.18-9.79-32.77-12.69-49.45q-0.4-2.6-0.8-5.19c-2.5-16.29-3.69-32.57-3.49-48.95 0-1.8 0.1-3.5 0.1-5.3 0.5-17.08 2.29-34.06 5.29-50.84q0.4-2.6 1-5.2h-0.1c3-15.48 6.89-30.77 11.59-45.85l22.37 9.89 10.19 4.49h0.1l4.2 1.9c-2.8 10.89-5.9 23.98-8.49 37.96q-0.5 2.5-0.9 5-3.9 21.57-5.1 43.45-0.2 2.6-0.3 5.1c-0.1 3.79-0.1 7.59-0.1 11.28 0.1 11.19 1 22.28 2.6 33.37q0.3 2.5 0.7 4.99h0.1c2.2 13.49 5.4 26.58 9.49 39.56q0.8 2.4 1.6 4.9c2.7 8.09 5.69 16.38 9.19 24.67 1.7 4.2 4.4 9.49 7.49 15.39q1.2 2.19 2.5 4.49l14.78 25.28 2.6 4.29c2.2 3.5 4.1 6.59 5.6 8.99l1.39 2.2 7.7 13.88 2.59 4.4 14.69 25.97 2.5 4.4 14.08 24.87 2.5 4.3 13.78 24.47 2.5 4.5 13.99 24.57 2.49 4.4 9.19 16.28 4.3 8.19 2.4 4.6h0.1l7.89 15.28 1.3 2q6.89 10.49 14.48 20.08 1.5 2 3.2 3.99h-0.1c9.39 11.49 19.78 22.28 30.87 32.17q1.99 1.6 3.89 3.3c11.29 9.49 23.48 17.98 36.27 25.37l2.29 1.3c13.39 7.59 27.57 13.88 42.26 18.78q2.4 0.8 4.89 1.5c13.69 4.29 27.77 7.29 42.06 8.99q2.4 0.2 4.89 0.5c6.6 0.6 13.29 1 19.88 1h1.9q11.69 0 23.28-1.2l0.1 0.1q2.49-0.3 4.89-0.6c14.39-1.7 28.47-4.8 42.06-9.19l0.1-0.1q2.4-0.8 4.79-1.6v0.1c13.79-4.69 27.08-10.69 39.76-17.68v-0.1q2.2-1.2 4.4-2.5c12.68-7.39 24.77-15.78 36.06-25.27q1.9-1.7 3.8-3.4c11.38-9.89 21.87-20.68 31.56-32.17q1.6-1.99 3.3-3.99 7.89-9.69 14.98-20.38l1.3-1.8 8.09-14.58v-0.1l2.5-4.4 13.29-23.97 2.5-4.4 13.88-24.97 2.5-4.4 13.68-24.47 2.4-4.4 13.99-24.97 2.49-4.4 13.59-24.37 0.6-1 2.4-4.5 14.18-25.77 2.4-4.39 14.48-26.48 2.1-3.79 0.4-0.7c2.2-3.9 9.29-18.08 16.28-40.06l-0.1-0.1q0.8-2.4 1.5-4.9c3.7-12.58 6.6-25.27 8.79-38.16q0.4-2.49 0.8-4.99c2.2-14.59 3.4-29.27 3.5-43.95h0.1v-5.1h-0.1c0-14.68-1.1-29.27-3.2-43.75q-0.4-2.5-0.8-5-3.19-19.48-8.99-38.56l4.3-1.9 10.09-4.49 22.87-10.19c4.9 17.08 8.7 32.57 11.49 46.65q0.5 2.6 1 5.2c3.1 16.78 5 33.86 5.5 50.94 0.1 1.8 0.1 3.6 0.1 5.3q0 24.72-4.2 49.15-0.4 2.59-0.9 5.19c-1.6 8.89-3.5 17.58-5.59 26.77-1.8 7.99-3.8 15.39-6 22.28q-0.8 2.5-1.6 4.99c-7.19 21.58-15.38 36.77-20.17 44.66q-0.4 0.7-0.8 1.3l-1.9 3.19-16.08 27.47-2.7 4.5-14.59 24.97-2.29 3.9-0.3 0.7c-1.4 2.6-6.3 12.39-13.19 25.97l-2.4 4.7c-3.89 7.49-8.29 16.18-12.98 25.27q-1.2 2.3-2.4 4.6v0.09c-4.3 8.1-8.59 16.49-12.99 24.68l-2.5 4.59c-4.59 8.7-9.09 17.19-13.48 25.18h0.1l-2.6 4.59c-5.39 9.79-10.29 18.58-14.38 25.38q-1.3 2.09-2.4 3.99-0.2 0.2-0.4 0.5h0.1c-9.19 14.79-18.68 28.77-28.77 42.06q-1.6 2.2-3.2 4.29v-0.1c-10.99 14.19-22.87 27.58-35.66 39.86q-1.9 1.9-3.9 3.7-19.03 17.83-41.05 31.47-2.3 1.39-4.6 2.69c-14.88 8.79-30.77 15.89-47.25 21.18q-2.5 0.8-5.09 1.5c-16.49 4.79-33.27 7.89-50.45 9.29q-2.4 0.2-4.8 0.4c-9.49 0.6-19.28 0.8-29.47 0.4q-12.28-0.4-23.87-1.6-2.5-0.3-5.1-0.6c-16.68-1.9-33.16-5.39-49.34-10.19h0.1q-2.5-0.8-5.1-1.6v0.1c-16.28-5.29-31.97-12.18-46.85-20.58l0.1-0.1c-1.6-0.79-3.1-1.69-4.6-2.59q-22.47-13.29-41.95-30.77h-0.1q-1.9-1.7-3.9-3.6c-12.88-11.98-24.87-24.97-35.66-38.86v-0.1q-1.6-2.09-3.2-4.09v-0.1q-15.18-19.98-28.07-41.46-0.6-0.9-1.2-1.9-1.2-2.09-2.59-4.49c-4-6.79-8.6-14.99-13.69-24.18z"></path>
&#x9;<path fill-rule="evenodd" class="s1" d="m195.96 409.71q-1.2-1.9-2.5-4.1h-0.2c-1.89-3.09-3.89-6.39-5.99-9.98l-2.6-4.2c-2.19-3.5-4.29-7.19-6.39-10.89q-1.3-2.1-2.4-4.29h-0.1c-2.4-4.3-4.59-8.4-6.39-12.09q-1.1-2.3-2-4.3-0.6-1.3-1-2.49-2.4-5.7-4.49-11.29-0.9-2.3-1.7-4.6-1.2-3.49-2.4-6.99-1.2-3.4-2.2-6.79-0.7-2.3-1.4-4.6-2.29-7.59-3.99-14.98h-0.1q-0.6-2.4-1.1-4.7h0.1q-1.7-7.89-2.9-15.68l-0.1-0.1q-0.4-2.3-0.7-4.7-1.19-8.49-1.79-16.98h0.1q-0.1-2.3-0.2-4.69c-0.2-3-0.3-5.9-0.3-8.9q-0.1-3.79 0-7.49 0.1-2.4 0.2-4.79l-0.1-0.1c0.3-5.7 0.8-11.49 1.39-17.38q0.3-2.4 0.6-4.7h0.1c0.7-5.89 1.6-11.69 2.6-17.28h-0.1q0.4-2.4 0.9-4.7c1.2-6.69 2.6-13.18 4-19.48q0.6-2.29 1.1-4.49h0.1c1.59-6.59 3.19-12.89 4.69-18.58l27.77 12.28c-1.4 5-1.6 3.5-2.9 8.9 0 0-1.89 9.79-2.29 11.38-1.1 5.3-2.3 10.69-3.2 16.19h-0.1c-0.3 1.6-0.6 3.09-0.8 4.59q-1.2 7.19-2.1 14.49-0.3 2.39-0.5 4.79-0.8 7.09-1.1 14.39h0.1q-0.1 2.29-0.2 4.79v6.79q0.1 3.9 0.3 7.7h-0.1q0.1 2.39 0.4 4.79h-0.1q0.4 6.99 1.4 14.09 0.3 2.39 0.7 4.79l0.1 0.1c0.6 4 1.3 7.99 2.2 12.09q0.5 2.3 1 4.69h0.1q1.4 6.1 3.2 12.29 0.59 2.3 1.39 4.6 1 3.39 2.1 6.79 0.9 2.6 1.8 5.19 0.8 2.2 1.6 4.5 2.1 5.69 4.49 11.59l0.3 0.7c0.5 1.1 1 2.39 1.6 3.69 1.5 3.1 3.5 6.8 5.5 10.59h0.1l2.39 4.4c1.9 3.39 4 6.89 6 10.29h0.1l2.49 4.19c2.2 3.6 4.3 7.1 6.1 10.09l0.2-0.1 2.59 4.2c1.5 2.5 2.7 4.29 3.1 4.99l1.9 2.9 1 1.9 2.5 4.39 6.29 11.19 2.5 4.3 6.09 10.79 2.4 4.39 5.99 10.49 2.4 4.2 4.19 7.39 2.5 4.29 6.3 11.19 2.39 4.4 5.7 9.99 2.49 4.29 4.8 8.49 2.4 4.3 5.19 9.09 2.3 4.39 4.79 8.4 2.5 4.39 5.4 9.49 2.49 4.4 4.1 7.29 1.6 3 2.3 4.39 4.89 9.29 2.3 4.4 2.99 5.69 0.3 0.5q1.1 1.6 2.2 3.3 1.4 2.1 2.9 4.09 3.6 5.2 7.49 10.09 1.5 1.9 3.1 3.8 3.59 4.49 7.39 8.69 1.6 1.9 3.3 3.7 3.89 4.09 7.99 7.99 1.8 1.8 3.69 3.49 4 3.7 8.1 7 1.99 1.6 3.89 3.19v0.1q4 2.9 7.79 5.9 2 1.4 4.1 2.79 4.99 3.5 10.19 6.6v0.1c1.4 0.8 2.8 1.7 4.39 2.49l1.3 0.8c29.17 16.59 62.24 25.48 95.7 25.88h1.5c60.54 0 117.68-28.27 160.33-78.42q1.6-1.9 3.2-3.8h0.1c2.6-3.29 5.2-6.59 7.79-9.99q1.4-2 2.9-3.99 1.9-2.6 3.7-5.3l0.3-0.5 2.29-4.09h0.1l2.4-4.3 5.1-8.99 2.39-4.29 5.5-9.89 2.4-4.4 5.89-10.39 2.5-4.39 4.69-8.4 2.4-4.39 4.69-8.69 2.5-4.3 4.9-8.79 2.39-4.39 7.3-13.09 5.89-10.59 2.5-4.29 5.19-9.59 2.4-4.2 5.89-10.49 2.4-4.39 6.19-10.99 2.5-4.3 6.2-10.69 2.49-4.19 6.1-10.39 2.49-4.2 5.9-10.09 2.5-4.29 5.49-9.29 2.4-4.3 2.89-4.79c0.5-0.8 1.8-2.8 3.4-6q1.1-1.9 2.3-4.39c1.6-3.9 3.09-7.79 4.49-11.59q0.9-2.3 1.7-4.6 0.9-2.59 1.7-5.09 1.2-3.5 2.2-6.79v-0.1c0.5-1.5 1-3 1.4-4.6h0.1q1.69-6.19 3.19-12.29c0.3-1.59 0.7-3.09 1-4.69q1.2-6.09 2.2-12.09 0.4-2.4 0.7-4.79 1-7.1 1.5-14.09 0.2-2.4 0.3-4.79c0.1-2.5 0.2-5.1 0.2-7.6 0.1-2.29 0-4.59 0-6.89q0-2.4-0.1-4.79-0.3-7.2-1.1-14.39-0.2-2.4-0.5-4.79-0.9-7.3-2.1-14.49-0.4-2.2-0.8-4.59-1.6-8.29-3.4-16.19-0.49-2.39-1.09-4.69-2-7.99-4-15.59l27.77-12.38c1.5 5.69 3.1 11.98 4.7 18.68q0.6 2.2 1.09 4.59c1.4 6.2 2.7 12.69 4 19.38q0.4 2.4 0.9 4.7c1 5.59 1.8 11.39 2.6 17.28q0.3 2.4 0.6 4.79c0.6 5.8 1.1 11.59 1.4 17.39 0 1.6 0.09 3.19 0.09 4.79q0.2 3.8 0.2 7.49 0 4.5-0.2 8.89-0.19 2.4-0.29 4.7-0.6 8.49-1.8 16.98-0.3 2.4-0.6 4.7-1.3 7.79-3 15.68-0.6 2.4-1.1 4.7c-1.2 4.99-2.5 9.99-3.99 14.98h-0.1q-0.7 2.3-1.4 4.6v0.1c-0.7 2.19-1.4 4.49-2.2 6.79q-1.2 3.39-2.5 6.99-0.8 2.2-1.6 4.5-2.09 5.59-4.39 11.28c-0.4 0.8-0.9 1.7-1.3 2.6q-1.1 2.3-2.2 4.2c-1.7 3.29-3.19 5.69-4.19 7.29l-2.5 4.3-3.4 5.99-5.29 8.89-2.5 4.2-5.89 10.09-2.5 4.29-6.09 10.39-2.5 4.3-6.79 11.48-0.5 1-1.9 3.3-6.2 10.99-2.39 4.39-5.9 10.39-2.39 4.4-5.3 9.49-2.5 4.39-5.89 10.59-2.4 4.4-4.89 8.69-2.4 4.39-4.79 8.69-2.5 4.4-4.8 8.69-2.39 4.4-4.7 8.29-2.5 4.39-5.89 10.49-2.4 4.4-5.09 9.09-2.4 4.29-5.69 10.19-2.4 4.4h-0.1l-1.1 2-1 1.49q-2.5 3.6-4.99 7.1h0.1q-1.5 2-3 3.99-4.6 6.1-9.39 11.89-1.6 1.9-3.2 3.8c-48.45 56.34-113.48 88.01-182.51 88.01h-1.8c-38.66-0.4-76.72-10.69-110.38-29.77-0.9-0.4-1.7-1-2.5-1.4q-2.2-1.3-4.19-2.6v-0.1q-5.8-3.4-11.29-7.29c-1.4-0.9-2.8-1.8-4.1-2.8q-4.79-3.4-9.39-7.09-2-1.5-3.89-3.1-4.8-4.09-9.49-8.39-1.9-1.7-3.7-3.4-4.1-3.89-8.09-8.09-1.7-1.7-3.3-3.49-4.79-5-9.29-10.49c-1.1-1.2-2.1-2.5-3.1-3.8q-4.49-5.49-8.69-11.39-1.5-2-2.89-3.99-2.2-3.2-4.3-6.4l-1.2-1.79-1.5-2.9-2.29-4.4-5.3-10.29-2.3-4.39-2.99-5.7-2.6-4.59-2.4-4.3-5.49-9.69-2.5-4.29-4.69-8.39-2.5-4.3-5.2-9.09-2.39-4.39-4.8-8.4-2.4-4.39-5.69-9.99-2.5-4.3-6.29-11.18-2.5-4.4-4.09-7.29-2.5-4.4-5.9-10.49-2.49-4.29-6.4-11.19-2.39-4.3-6.3-11.18-2.49-4.3-1.7-3.3-1.5-2.29c-0.9-1.3-1.8-2.9-2.8-4.6q-0.1 0-0.1 0z"></path>
&#x9;<path fill-rule="evenodd" class="s1" d="m66.2 264.26c-1.2-19.08-0.8-38.36 1.2-57.34q0.2-2.4 0.5-4.79 2.99-25.58 9.29-50.55 0.6-2.3 1.3-4.7 3.39-12.98 7.79-26.37l23.37 10.19q-4.09 12.19-7.09 23.98-0.6 2.39-1.2 4.79c-3.79 15.19-6.49 30.77-8.19 46.55-0.1 1.6-0.3 3.2-0.4 4.9q-2.3 26.07-0.3 52.14h-0.2l0.2 0.1c0.1 1.6 0.2 3.1 0.4 4.8 1.5 16.18 4.1 32.36 7.99 48.05q0.6 2.4 1.2 4.79c4.3 16.59 9.59 32.97 15.98 48.75 0.7 1.6 1.3 3.1 1.9 4.5v0.1l0.1-0.1 1 2.59c3.4 8.3 9.39 19.78 17.98 34.57q1.1 2.1 2.4 4.19 6.99 11.89 15.88 26.18l0.7 1.2 0.1 0.2 2.3 4.09 7.89 14.59 1.1 1.99 5.4 9.99 2.29 4.3 14.39 26.67 2.4 4.3 13.88 25.97 2.4 4.4 13.98 25.77 2.3 4.39 14.79 27.28 2.29 4.29 4.4 8.19-21.08 14.29-4.59-8.19-2.4-4.3-15.29-26.97-2.29-4.3-14.59-25.67-2.4-4.2-14.48-25.57-2.4-4.29-14.88-26.28-2.4-4.29-14.88-26.28-2.4-4.29-0.7-1.1-0.5-0.9c-5.29-10.09-9.89-18.88-13.79-26.47l-2.19-4.3c-12.49-24.27-17.69-34.56-19.38-38.66q-0.6-1.29-1.1-2.69h-0.1q-0.9-2.2-1.9-4.5c-7.09-17.28-13.09-34.96-17.88-53.14q-0.6-2.4-1.2-4.8c-4.2-17.38-7.09-35.26-8.59-53.24q-0.2-2.4-0.3-4.7l0.1-0.2z"></path>
&#x9;<path fill-rule="evenodd" class="s1" d="m869.56 415.4l9.59-17.18c4.6-7.69 8.79-15.68 12.39-23.87q0.9-2.2 1.9-4.5 9.59-22.67 14.98-46.65l0.5-2.1q0.5-2.29 1.1-4.69c3.6-16.09 6.19-32.27 8.09-48.65 0.1-1.7 0.4-3.3 0.6-4.9 1.6-17.38 1.8-34.86 0.4-52.24q-0.2-2.4-0.5-4.9h0.1q-1.4-13.78-4.1-27.27l-0.4-1.9h0.1q-1.79-8.69-4.19-17.38-0.6-2.3-1.3-4.69-3.4-11.89-7.99-24.18l23.07-10.19q4.7 13.39 8.2 26.57c0.5 1.6 0.8 3.2 1.29 4.7q6.4 25.07 9.2 50.85h-0.1q0.3 2.39 0.49 4.79c1.8 18.98 2.1 37.96 0.8 56.94-0.1 1.3-0.4 4.8-0.4 4.8-1.39 18.08-4.29 36.06-8.39 53.74q-0.5 2.4-1.1 4.7c-4.49 18.08-10.38 35.76-17.58 52.94h-0.2 0.1c-0.6 1.5-1.3 3-1.9 4.5-6.09 13.98-12.98 27.67-20.57 40.95l-0.2 0.2-2.4 4.3-15.39 27.97-2.39 4.3-14.89 26.67-2.29 4.29-14.59 26.38-2.4 4.19-14.38 25.87-2.4 4.3-14.28 25.87-2.4 4.3-14.89 26.77-2.29 4.3-4.6 8.19-21.18-14.59 4.4-7.99 2.4-4.29 14.78-26.78 2.3-4.29 14.38-25.88 2.3-4.29 6.09-10.89-0.1-0.1 1.4-2.4 7-12.58 2.39-4.3 5.7-10.29 0.4-0.7 8.49-15.28 2.3-4.3 14.68-26.77 2.4-4.29z"></path>
&#x9;<path fill-rule="evenodd" class="s2" d="m369.08 797.01q-2.19-1.1-4.39-2.2l-0.1 0.1q-11.49-5.5-22.48-11.89-11.69-6.89-22.88-14.48v-0.1c-1.39-0.9-2.69-1.8-4.09-2.8-14.59-10.29-28.27-21.78-41.16-34.16q-1.8-1.7-3.59-3.5c-12.69-12.49-24.58-26.07-35.47-40.36q-1.5-2-2.99-4c-8.89-11.98-17.19-24.47-24.78-37.26l19.98-13.28 16.48-10.79 4.8-3.2q9.69 15.99 20.08 30.37 1.5 2.1 2.99 4c9.3 12.68 19.58 24.57 30.37 35.76q1.8 1.8 3.5 3.5c10.79 10.68 22.18 20.57 34.36 29.56 1.2 0.9 2.6 1.9 3.9 2.8 12.29 8.79 25.17 16.58 38.56 23.28q2.2 1.1 4.39 2.2c13.79 6.59 28.08 11.98 42.76 16.18q2.4 0.7 4.8 1.3h0.1c14.38 3.79 29.06 6.49 43.95 7.89q2.3 0.2 4.79 0.4c14.99 1.1 29.67 3.59 44.56 2.2l8.49-0.7c14.88-1.6 26.67-4.8 41.06-8.79v0.1q2.39-0.7 4.79-1.4c14.09-4.1 27.97-9.29 41.26-15.49q2.3-1.1 4.49-2.19l0.1 0.1c13.69-6.7 26.88-14.39 39.36-22.98l4.1-2.8c12.68-8.99 24.67-18.88 35.86-29.67v-0.1q1.7-1.69 3.5-3.49c10.89-10.89 21.08-22.48 30.27-34.87q1.39-1.89 2.99-3.99c7.1-9.89 13.69-20.18 19.68-30.87l4.9 3.2 15.58 10.19 19.28 12.48c-7.49 13.29-15.78 26.18-24.77 38.46q-1.5 2-3 4c-10.79 14.28-22.48 27.67-35.16 40.16q-1.8 1.69-3.6 3.49-19.38 18.48-41.06 33.87-2.1 1.4-4.09 2.79c-14.69 9.99-29.97 18.89-46.06 26.48q-2.29 1.1-4.49 2.1c-15.78 7.09-31.97 13.08-48.65 17.68q-2.4 0.7-4.79 1.3c-16.69 4.29-34.07 5.49-51.25 7.29q-2.4 0.2-4.8 0.4-11.88 1-23.97 1.2h-4.1q-12.28-0.1-24.57-1-2.4-0.1-4.8-0.4c-17.08-1.6-33.96-4.5-50.54-8.69q-2.4-0.6-4.8-1.3c-17.08-4.7-33.56-10.69-49.65-18.08zm-4.39-2.2h-0.1q0.1 0 0.1 0z"></path>
&#x9;<path fill-rule="evenodd" class="s3" d="m265.39 320.7v-0.1c0 0.1 0.1 0.1 0.1 0.1v-0.1c-5.49-9.99-9.79-20.78-12.89-31.86v-0.1q-0.69-2.3-1.19-4.7c-2.5-11.19-3.7-22.48-3.4-33.96q0-2.7 0.1-5.4 0.8-14.38 3.3-28.47 0.4-2.1 0.79-4.19 1.6-8.39 3.6-17.19l26.17 11.59 8.3 3.7 3.89 1.7 4.2 1.89c7.59-10.28 17.08-18.58 26.87-26.57 35.06-28.87 72.82-53.34 115.28-70.02 19.08-7.6 38.75-12.87 59.34-13.79 18.38-0.82 36.16 2.09 53.54 8.09 33.96 11.73 65.33 27.97 94.9 48.05 18.18 12.39 35.56 25.57 51.55 40.76 3.39 3.2 12.29 13.58 12.59 13.88q0-0.1-0.1-0.2l4.39-1.89q0-0.1 0-0.1l4.4-2q0.1 0.1 0.1 0.1l7.69-3.5 26.07-11.59c1.2 5.5 2.4 10.79 3.4 15.99l-0.1 0.1q0.5 2.4 1 4.89c1.69 9.69 2.89 19.48 3.39 29.37h-0.1c0.1 1.8 0.2 3.6 0.2 5.3 0.2 11.38-1 22.57-3.49 33.66q-0.5 2.4-1.2 4.8c-3 11.08-7.29 21.87-12.79 31.96l-0.3 0.5-2 3.6-14.08 24.87-2.2 4-4.89 8.59-1.9 3.3-4.9 8.69-1.9 3.19-4.89 8.69-1.7 3.3-4.89 8.69-1.9 3.2-4.9 8.69-1.99 3.5-4.9 8.69-1.6 2.79-4.89 8.7-1.9 3.39-4.9 8.69-1.99 3.4-4.9 8.69-2.1 3.7-4.79 8.59-2 3.49-4.89 8.69-1.7 3.1-5 8.69-1.8 3.2-4.89 8.59-2.1 3.7-4.79 8.59v0.1l-2.2 3.89-7.39 12.89-2.1 3.7v-0.1q-3.1 4.49-6.39 8.79-1.9 2.49-3.8 4.89-4.2 5-8.59 9.59-1.5 1.5-2.9 2.9-4.39 4.29-9.09 8.19c-1.2 1-2.4 1.9-3.49 2.9q-7.6 5.89-15.89 10.69-2.2 1.39-4.59 2.59-8 4.2-16.39 7.3c-1.4 0.49-2.79 0.99-4.09 1.49q-9.89 3.2-19.98 4.9h-0.1q-2 0.3-4 0.6-7.49 1-14.98 1.1c-0.9 0-3.8 0-4.6 0q-7.59-0.1-14.98-1.1h-0.1q-2-0.3-4.1-0.7l-0.1 0.1c-6.59-1.2-13.28-2.8-19.88-5q-1.99-0.7-4.09-1.49-8.39-3.1-16.38-7.3-2.4-1.3-4.7-2.59-6.69-3.9-12.99-8.5 0 0-0.1-0.1-1.39-1.09-2.79-2.09-6.7-5.2-12.79-11.09c-0.9-0.9-1.9-1.8-2.8-2.8h-0.1q-4.49-4.59-8.59-9.59-1.8-2.2-3.49-4.39v0.1q-3.1-3.9-6-8l-0.8-1.39-1.99-3.6-7.1-13.09-2-3.69-0.1-0.2-4.79-8.49-2.1-3.6-4.89-8.69-1.8-3.2-4.9-8.59-1.79-3.1-4.9-8.69-2-3.49-4.89-8.69-6.5-11.69-2.39-4.1-4.7-8.29-2.1-3.69-4.49-8-2.3-3.99-4.29-7.59-2.3-4.2-4.7-8.19-2.09-3.7-4.9-8.69-2.2-3.89-4.19-7.5-2.2-3.79-4.8-8.59-1.89-3.4-4.9-8.49-2.7-4.8-13.88-24.57-1.8-3.3q0 0-0.1-0.1zm479.7 1.1l0.1-0.2q0 0.1-0.1 0.2zm-319.27 256.43z"></path>
&#x9;<path fill-rule="evenodd" class="s3" d="m342.21 162.67l-2.6 2q-9.79 7.29-19.58 15.28l-0.4 0.3c-0.89 0.8-1.69 1.4-2.29 1.9-5.6 4.49 0.2-0.5-9.69 8.49l-3.4-4-14.28-17.18-3-3.5q5.09-4.69 0 0l-19.98-23.97q5.39-4.4 10.99-8.89l2.7-2.1c7.29-5.59 14.78-11.29 22.47-16.78l2.8-2c7.59-5.49 15.48-10.89 23.37-15.98 0.9-0.6 1.8-1.3 2.8-1.9l0.1 0.1q3.8-2.6 7.69-5 8.29-5.29 16.59-10.09l2.99-1.69c7.99-4.6 15.89-8.99 23.68-12.99l3.1-1.5c9.19-4.69 18.28-8.79 26.97-12.29h0.1l3.19-1.19c8.99-3.5 17.88-6.5 26.58-8.99q1.69-0.5 3.29-0.9 4.9-1.3 9.69-2.4l3.7-0.8 8.39 29.47 1.4 4.79q-6.2 1.2-12.39 2.9v-0.1l-3.3 0.9q-0.1 0-0.1 0l6.7 21.08 1.5 4.69c-6 1.4-10.49 3-23.08 7.99l-1.7 0.6-1.4 0.6q-11.48 4.6-22.77 9.99v0.1l-3.1 1.4q-10.79 5.3-21.38 11.29l-2.89 1.7q-10.29 5.99-20.58 12.68l-2.8 1.9q-9.99 6.6-19.98 14.09z"></path>
&#x9;<path fill-rule="evenodd" class="s3" d="m556.29 69.47l-0.7-0.2c-3.2-1.2-6.59-2-10.09-2.5l-2.9-0.4 8.79-29.57 13.59 3.7 3.2 0.79 6.59 1.8q9.89 3.2 19.78 6.9h0.1l3.19 1.19q13.09 5.2 26.38 11.59 1.5 0.7 2.99 1.5v-0.1q1.7 0.8 3.4 1.7 10.59 5.39 21.58 11.69 1.5 0.8 2.99 1.69c7.8 4.5 15.89 9.5 24.08 14.89l2.8 1.9q3.19 2.1 6.29 4.19c6.19 4.2 11.79 7.99 16.98 11.79l2.7 1.9c3.8 2.8 7.39 5.49 10.89 8.19 4.19 3.3 7.89 6.09 11.59 9.19q1.29 1.1 2.59 2.2h0.1c3.3 2.8 6.6 5.89 10.29 9.29l-20.18 23.67 0.4 0.4-2.69 3-14.89 17.08-2.3 2.5 2.2-2.6-3.19 3.7 0.1-0.1 0.19-0.2-0.19 0.2h0.09l-0.09 0.1-0.1 0.1-0.2 0.2c-2.6-2.4-5.6-4.9-8.9-7.59l-2.59-2.2c-6-5-12.59-10.19-19.28-15.29l-2.7-2.09-0.1 0.1c-5.39-4.1-10.79-8.09-15.88-11.49l-4.4-3v-0.1q-1.4-0.9-2.8-1.8-10.58-6.99-20.77-12.98l-2.9-1.7h-0.1q-11.09-6.29-21.78-11.69l-3.09-1.5q-11.39-5.39-22.48-9.89h-0.1q-1.6-0.6-3.2-1.2-7.69-2.99-15.58-5.39c-3.1-1-5.3-1.7-6.99-2.3l1.59-4.99 7-21.48 1.3-3.9c-1.2-0.4-2-0.7-2.6-0.89z"></path>
&#x9;<g id="field">
&#x9;&#x9;<path class="s4" d="m545.64 486c-11.66 20.72-30.34 28.64-43.45 27.23-2.09-0.22-21.75-1.06-36.94-23.06-3.74-5.17-85.25-145.12-87.05-148.41l-78.44-68.4c-2.27-4.97-6.42-19.05-6.27-22.48-0.86-23.84 2.58-34.13 3.27-37.3 7.59-10.34 17.1-18.68 26.86-26.68 35.15-28.96 73.07-53.42 115.59-70.25 19.12-7.57 38.87-12.79 59.53-13.79 18.4-0.85 36.23 2.57 53.68 8.06 34.36 10.82 65.48 28.14 95.14 48.26 18.21 12.35 35.66 25.69 51.66 40.85 3.41 3.24 12.4 13.59 12.68 13.9 6.02 22.95 2.73 37.39 3.13 38.49-0.63 5.52-3.13 13.72-5.35 19.81-0.59 0.93-78.74 68.63-79.74 69.53z"></path>
&#x9;&#x9;<path class="s5" d="m699.06 262.57q0 0.21-0.06 0.41-0.05 0.2-0.15 0.38-0.1 0.18-0.24 0.34-0.14 0.15-0.31 0.27c-1.9 1.37-2.97 3.73-5.37 4.49q-0.07 0-0.13 0.03-0.07 0.02-0.11 0.07-0.05 0.05-0.08 0.11-0.03 0.06-0.04 0.13c-1.99 2.1-4.03 4.1-6.09 6.1-2.43 0.62-3.23 3.52-5.68 4.11q-0.06 0.01-0.12 0.03-0.06 0.03-0.11 0.07-0.05 0.05-0.08 0.1-0.03 0.06-0.05 0.12c-2 2.1-4.1 4.1-6.1 6.1-2.44 0.61-3.23 3.52-5.69 4.11l-0.75 1.55c-2.53 0.86-3.68 3.32-5.68 4.86-2.47 0.59-3.25 3.53-5.71 4.11l-0.75 1.55c-2.54 0.87-3.69 3.32-5.69 4.87-2.46 0.58-3.24 3.53-5.71 4.11l-0.75 1.55c-2.54 0.88-3.69 3.33-5.69 4.88-2.84 1.11-4.24 3.87-6.48 5.66-2.52 0.86-3.67 3.32-5.67 4.86-2.76 1.13-4.23 3.71-6.29 5.62h-0.24q-0.12 0.09-0.24 0.18-0.12 0.1-0.23 0.19-0.12 0.1-0.23 0.2-0.12 0.1-0.23 0.2 0.06-0.01 0.13-0.01 0.06-0.01 0.13-0.01 0.07 0 0.13 0.01 0.07 0 0.13 0.01c-3.19 7.44-7.73 14.13-11.73 21.13q-33.71 58.92-67.71 117.71-1.62 2.92-3.55 5.65-1.94 2.72-4.16 5.21-2.24 2.49-4.73 4.71-2.5 2.22-5.23 4.14c-12.79 8.72-25.46 7.97-37.46-1.9-8.53-7-14.15-16.12-19.53-25.5q-37.36-65-74.74-130-0.07-0.13-0.13-0.27-0.06-0.14-0.12-0.28-0.06-0.14-0.11-0.28-0.05-0.15-0.1-0.29-0.03-0.07-0.05-0.14-0.02-0.07-0.02-0.15 0-0.08 0.02-0.15 0.02-0.07 0.05-0.14l-0.09-0.07c-1.46-1.05-2.15-3.06-4.2-3.36l-1.61-1.56c-1.75-1.21-2.48-3.64-4.87-4.1l-0.83-0.76c-1.72-1.24-2.46-3.64-4.84-4.1l-1.61-1.56c-1.75-1.23-2.48-3.65-4.87-4.1l-0.82-0.77c-1.98-1.51-2.97-4.17-5.65-4.88l-0.82-0.78c-1.73-1.24-2.47-3.64-4.85-4.1l-0.81-0.76c-1.99-1.52-3-4.17-5.67-4.9l-0.81-0.76c-1.73-1.24-2.48-3.63-4.85-4.12l-1.61-1.55c-1.74-1.23-2.49-3.63-4.87-4.11l-0.8-0.75c-2.01-1.51-3-4.18-5.68-4.92l-0.78-0.75c-1.75-1.23-2.53-3.61-4.88-4.13l-0.76-0.73c-2.04-1.49-3.07-4.16-5.72-4.94l-0.75-0.73c-2.04-1.49-3.08-4.14-5.72-4.94l0.08 0.08c-0.9-0.62-1.68-1.29-1.3-2.56-0.81-5-1.99-9.92-2.64-15-1.11-8.61 0.2-16.88 2-25.18 0.97-4.49 4.32-7.4 7.45-10.28q12.6-11.68 26.07-22.34 13.47-10.66 27.74-20.24 14.26-9.57 29.23-18 14.97-8.43 30.55-15.67c18.52-8.55 37.74-15.04 58-17.89 20.09-2.84 39.69-0.01 58.93 5.9 36.59 11.22 69.24 30.12 100.38 51.89q5.83 4.1 11.52 8.38 5.7 4.27 11.26 8.73 5.55 4.46 10.96 9.09 5.42 4.63 10.68 9.43c6.06 5.51 8.86 12.09 9.86 20 1.4 10.63-0.18 20.88-2.47 31.08z"></path>
&#x9;&#x9;<path class="s4" d="m433.14 370.48c3.52-10 8.26-19.35 15.74-27 15.39-15.71 34.12-23.41 56.12-23.33 21 0.07 38.85 7.8 53.69 22.41q2.89 2.85 5.4 6.03 2.51 3.18 4.6 6.65 2.09 3.47 3.74 7.17 1.64 3.71 2.81 7.59l0.6 1.54c1.15 2.63 0.11 4.17-2 6-17.86 15.38-35.53 31-53.32 46.42-1.71 1.49-2 3.15-2.16 5.29-0.5 8.35-6.65 13.71-15.05 13.43-7.52-0.25-13-6-13.08-14.07q0.03-0.69-0.09-1.38-0.13-0.68-0.41-1.32-0.28-0.63-0.7-1.19-0.42-0.55-0.96-0.99-24.81-21.64-49.53-43.38c-1.52-1.33-3-2.7-4.55-4-1.55-1.3-0.85-5.87-0.85-5.87zm110.03 9.01q-0.14-0.19-0.29-0.38-0.15-0.19-0.3-0.37-0.16-0.18-0.32-0.36-15.01-14.14-29.93-28.38c-1.19-1.15-1.93-0.71-3.09 0-2.95 1.8-6.33 2.18-9.18 0.29-2.45-1.65-3.74-0.75-5.45 0.88q-14.16 13.59-28.47 27c-1.28 1.2-1.77 2.06-0.67 3.69q0.64 0.92 0.99 1.99 0.35 1.06 0.38 2.19 0.03 1.12-0.26 2.2-0.3 1.09-0.89 2.04c-0.8 1.46-0.71 2.36 0.56 3.46q13.11 11.42 26.11 22.94c1.53 1.31 2.65 1.48 4.53 0.31q1.65-1.11 3.55-1.69 1.91-0.57 3.89-0.56 1.99 0.01 3.89 0.61 1.89 0.6 3.53 1.73c1.8 1.15 2.7 0.83 4.1-0.4q12.09-10.68 24.35-21.26c2.13-1.83 3.82-3.26 1.57-6.36-1.47-2.03-0.86-4.67 0.36-6.93 0.38-0.71 0.81-1.39 1.32-2.25q-0.14-0.2-0.28-0.39z"></path>
&#x9;&#x9;<path class="s6" d="m495.64 386.9c0.07-5.16 3.55-8.47 8.75-8.34 2.3 0 4.51 0.93 6.12 2.58 1.61 1.64 2.49 3.87 2.43 6.18-0.05 2.3-1.04 4.48-2.72 6.05-1.69 1.57-3.94 2.39-6.24 2.28-5.09-0.01-8.41-3.5-8.34-8.75z"></path>
&#x9;&#x9;<path class="s7" d="m293.49 250.92l-0.12-0.91q0-0.45 0-0.91c2.15 1.58 211.42 183.34 211.42 183.34l-0.55 0.81c0 0-208.63-181.28-210.75-182.33z"></path>
&#x9;&#x9;<path class="s7" d="m715.22 250.08c-0.3 0.5-210.71 182.96-211.14 183.3q-0.1-0.09-0.2-0.19-0.09-0.09-0.19-0.2-0.09-0.09-0.18-0.2-0.09-0.1-0.18-0.21c1.25-1.14 210.52-182.55 211.72-183.75q0.09 0.62 0.17 1.25z"></path>
&#x9;&#x9;<path class="s7" d="m500.28 386.38h7.88v1.45h-7.88z"></path>
&#x9;&#x9;<path class="s8" d="m551.11 384.92l3.51-3.05 3.06 3.51-3.52 3.06z"></path>
&#x9;&#x9;<path class="s8" d="m501.41 338.19l2.9-2.9 2.91 2.9-2.91 2.91z"></path>
&#x9;&#x9;<path class="s8" d="m501.41 431.19l0.02-0.26v-2.87h5.91v2.87l-0.12 0.26-2.91 2.91z"></path>
&#x9;&#x9;<path class="s8" d="m450.49 385.38l3.06-3.51 3.52 3.06-3.06 3.51z"></path>
&#x9;</g>
</svg>